<?xml version="1.0" encoding="UTF-8"?><svg xmlns="http://www.w3.org/2000/svg" xmlns:xlink="http://www.w3.org/1999/xlink" fill-opacity="1" color-rendering="auto" color-interpolation="auto" text-rendering="auto" stroke="black" stroke-linecap="square" width="1298" stroke-miterlimit="10" shape-rendering="auto" stroke-opacity="1" fill="black" stroke-dasharray="none" font-weight="normal" stroke-width="1" height="1217" font-family="'Dialog'" font-style="normal" stroke-linejoin="miter" font-size="12px" stroke-dashoffset="0" image-rendering="auto">
  <!--Generated by ySVG 2.6-->
  <defs id="genericDefs"/>
  <g>
    <g fill="white" text-rendering="geometricPrecision" shape-rendering="geometricPrecision" transform="translate(-91,-69)" stroke="white">
      <rect x="91" width="1298" height="1217" y="69" clip-path="url(#clipPath2)" stroke="none"/>
    </g>
    <g fill="url(#linearGradient1)" text-rendering="geometricPrecision" shape-rendering="geometricPrecision" transform="matrix(1,0,0,1,-91,-69)" stroke="url(#linearGradient1)">
      <rect x="199" y="468.5" clip-path="url(#clipPath2)" width="234" rx="20" ry="20" height="40" stroke="none"/>
    </g>
    <g text-rendering="geometricPrecision" stroke-miterlimit="1.45" shape-rendering="geometricPrecision" transform="matrix(1,0,0,1,-91,-69)" stroke-linecap="butt">
      <rect x="199" y="468.5" clip-path="url(#clipPath2)" fill="none" width="234" rx="20" ry="20" height="40"/>
      <text x="222.9502" xml:space="preserve" y="493.2139" clip-path="url(#clipPath2)" font-family="sans-serif" stroke="none">Erstellung des speziellen Schemas</text>
    </g>
    <g text-rendering="geometricPrecision" shape-rendering="geometricPrecision" transform="matrix(1.4743,0,0,1.4523,202.7767,15)">
      <g clip-path="url(#clipPath3)">
        <svg xmlns:svg="http://www.w3.org/2000/svg" xmlns:sodipodi="http://sodipodi.sourceforge.net/DTD/sodipodi-0.dtd" xmlns:inkscape="http://www.inkscape.org/namespaces/inkscape" xmlns:dc="http://purl.org/dc/elements/1.1/" xmlns:cc="http://web.resource.org/cc/" xmlns:rdf="http://www.w3.org/1999/02/22-rdf-syntax-ns#" opacity="1" writing-mode="lr-tb" stop-color="rgb(0, 0, 0)" shape-rendering="auto" glyph-orientation-horizontal="0deg" color-profile="auto" lighting-color="rgb(255, 255, 255)" color="rgb(0, 0, 0)" font-weight="400" alignment-baseline="auto" font-style="normal" version="1.0" color-interpolation-filters="linearrgb" text-anchor="start" stroke-linecap="butt" color-interpolation="srgb" font-variant="normal" word-spacing="normal" fill-opacity="1" text-rendering="auto" clip-path="none" text-decoration="none" letter-spacing="normal" glyph-orientation-vertical="auto" display="inline" font-size-adjust="none" overflow="hidden" fill="rgb(0, 0, 0)" font-stretch="normal" stroke-dasharray="none" inkscape:version="0.45.1" id="svg1.svg2" stroke-miterlimit="4" stop-opacity="1" color-rendering="auto" font-size="12" sodipodi:docbase="C:\Daten\alberts\projects\yfx" pointer-events="visiblepainted" mask="none" direction="ltr" baseline-shift="baseline" sodipodi:docname="uml_actor.svg" enable-background="accumulate" fill-rule="nonzero" image-rendering="auto" stroke-dashoffset="0" inkscape:output_extension="org.inkscape.output.svg.inkscape" marker-end="none" width="41" clip="auto" cursor="auto" stroke="none" filter="none" visibility="visible" kerning="auto" stroke-width="1" font-family="&quot;Arial&quot;,&quot;Helvetica&quot;,sans-serif" flood-opacity="1" clip-rule="nonzero" src="none" height="68.997391" unicode-bidi="normal" sodipodi:version="0.32" stroke-linejoin="miter" stroke-opacity="1" flood-color="rgb(0, 0, 0)" dominant-baseline="auto" marker-start="none" marker-mid="none">
            
          <defs id="svg1.defs4">
            <linearGradient x1="199" gradientUnits="userSpaceOnUse" x2="433" y1="468.5" y2="508.5" id="linearGradient1" spreadMethod="reflect">
              <stop stop-opacity="1" stop-color="rgb(221,221,221)" offset="0%"/>
              <stop stop-opacity="1" stop-color="rgb(221,221,221)" offset="100%"/>
            </linearGradient>
            <linearGradient x1="626" gradientUnits="userSpaceOnUse" x2="968" y1="604" y2="664" id="linearGradient2" spreadMethod="reflect">
              <stop stop-opacity="1" stop-color="rgb(221,221,221)" offset="0%"/>
              <stop stop-opacity="1" stop-color="rgb(221,221,221)" offset="100%"/>
            </linearGradient>
            <linearGradient x1="463" gradientUnits="userSpaceOnUse" x2="586" y1="460.25" y2="526.75" id="linearGradient3" spreadMethod="reflect">
              <stop stop-opacity="1" stop-color="rgb(221,221,221)" offset="0%"/>
              <stop stop-opacity="1" stop-color="rgb(221,221,221)" offset="100%"/>
            </linearGradient>
            <linearGradient x1="199" gradientUnits="userSpaceOnUse" x2="433" y1="538.5" y2="591" id="linearGradient4" spreadMethod="reflect">
              <stop stop-opacity="1" stop-color="rgb(221,221,221)" offset="0%"/>
              <stop stop-opacity="1" stop-color="rgb(221,221,221)" offset="100%"/>
            </linearGradient>
            <linearGradient x1="196" gradientUnits="userSpaceOnUse" x2="436" y1="257" y2="297" id="linearGradient5" spreadMethod="reflect">
              <stop stop-opacity="1" stop-color="rgb(221,221,221)" offset="0%"/>
              <stop stop-opacity="1" stop-color="rgb(221,221,221)" offset="100%"/>
            </linearGradient>
            <linearGradient x1="658" gradientUnits="userSpaceOnUse" x2="936" y1="312" y2="352" id="linearGradient6" spreadMethod="reflect">
              <stop stop-opacity="1" stop-color="rgb(221,221,221)" offset="0%"/>
              <stop stop-opacity="1" stop-color="rgb(221,221,221)" offset="100%"/>
            </linearGradient>
            <linearGradient x1="658" gradientUnits="userSpaceOnUse" x2="936" y1="382" y2="422" id="linearGradient7" spreadMethod="reflect">
              <stop stop-opacity="1" stop-color="rgb(221,221,221)" offset="0%"/>
              <stop stop-opacity="1" stop-color="rgb(221,221,221)" offset="100%"/>
            </linearGradient>
            <linearGradient x1="699" gradientUnits="userSpaceOnUse" x2="895" y1="694" y2="820" id="linearGradient8" spreadMethod="reflect">
              <stop stop-opacity="1" stop-color="rgb(221,221,221)" offset="0%"/>
              <stop stop-opacity="1" stop-color="rgb(221,221,221)" offset="100%"/>
            </linearGradient>
            <linearGradient x1="1144.5" gradientUnits="userSpaceOnUse" x2="1373.5" y1="908" y2="948" id="linearGradient9" spreadMethod="reflect">
              <stop stop-opacity="1" stop-color="rgb(221,221,221)" offset="0%"/>
              <stop stop-opacity="1" stop-color="rgb(221,221,221)" offset="100%"/>
            </linearGradient>
            <linearGradient x1="199" gradientUnits="userSpaceOnUse" x2="433" y1="806" y2="846" id="linearGradient10" spreadMethod="reflect">
              <stop stop-opacity="1" stop-color="rgb(221,221,221)" offset="0%"/>
              <stop stop-opacity="1" stop-color="rgb(221,221,221)" offset="100%"/>
            </linearGradient>
            <linearGradient x1="463" gradientUnits="userSpaceOnUse" x2="586" y1="792.75" y2="859.25" id="linearGradient11" spreadMethod="reflect">
              <stop stop-opacity="1" stop-color="rgb(221,221,221)" offset="0%"/>
              <stop stop-opacity="1" stop-color="rgb(221,221,221)" offset="100%"/>
            </linearGradient>
            <linearGradient x1="1158" gradientUnits="userSpaceOnUse" x2="1360" y1="978" y2="1087" id="linearGradient12" spreadMethod="reflect">
              <stop stop-opacity="1" stop-color="rgb(221,221,221)" offset="0%"/>
              <stop stop-opacity="1" stop-color="rgb(221,221,221)" offset="100%"/>
            </linearGradient>
            <linearGradient x1="635.5" gradientUnits="userSpaceOnUse" x2="958.5" y1="1127" y2="1201" id="linearGradient13" spreadMethod="reflect">
              <stop stop-opacity="1" stop-color="rgb(221,221,221)" offset="0%"/>
              <stop stop-opacity="1" stop-color="rgb(221,221,221)" offset="100%"/>
            </linearGradient>
            <linearGradient x1="682.5" gradientUnits="userSpaceOnUse" x2="911.5" y1="857" y2="897" id="linearGradient14" spreadMethod="reflect">
              <stop stop-opacity="1" stop-color="rgb(221,221,221)" offset="0%"/>
              <stop stop-opacity="1" stop-color="rgb(221,221,221)" offset="100%"/>
            </linearGradient>
            <linearGradient x1="682.5" gradientUnits="userSpaceOnUse" x2="911.5" y1="1231" y2="1271" id="linearGradient15" spreadMethod="reflect">
              <stop stop-opacity="1" stop-color="rgb(221,221,221)" offset="0%"/>
              <stop stop-opacity="1" stop-color="rgb(221,221,221)" offset="100%"/>
            </linearGradient>
            <clipPath clipPathUnits="userSpaceOnUse" id="clipPath1">
              <path d="M0 0 L1298 0 L1298 1217 L0 1217 L0 0 Z"/>
            </clipPath>
            <clipPath clipPathUnits="userSpaceOnUse" id="clipPath2">
              <path d="M91 69 L1389 69 L1389 1286 L91 1286 L91 69 Z"/>
            </clipPath>
            <clipPath clipPathUnits="userSpaceOnUse" id="clipPath3">
              <path d="M-137.5403 -10.3284 L742.8728 -10.3284 L742.8728 827.6479 L-137.5403 827.6479 L-137.5403 -10.3284 Z"/>
            </clipPath>
            <clipPath clipPathUnits="userSpaceOnUse" id="clipPath4">
              <path d="M-458.3687 -10.3284 L422.0443 -10.3284 L422.0443 827.6479 L-458.3687 827.6479 L-458.3687 -10.3284 Z"/>
            </clipPath>
            <clipPath clipPathUnits="userSpaceOnUse" id="clipPath5">
              <path d="M-771.7361 -10.3284 L108.677 -10.3284 L108.677 827.6479 L-771.7361 827.6479 L-771.7361 -10.3284 Z"/>
            </clipPath>
          </defs>
            
  
          <metadata id="svg1.metadata7">
    
  </metadata>
            
          <g inkscape:groupmode="layer" id="svg1.layer1" transform="translate(-29.5,-42.959476)" inkscape:label="Ebene 1">
                
            <a id="svg1.a3142" transform="matrix(1.0873906,0,0,1,-4.4741999,0)">
                    
              <path transform="translate(11.586889,5.2908993)" style="fill:none;fill-rule:evenodd;stroke:#000000;stroke-width:1px;stroke-linecap:butt;stroke-linejoin:miter;stroke-opacity:1" sodipodi:cx="38.509369" sodipodi:cy="47.36993" sodipodi:rx="8.5197716" id="svg1.path2160" d="M 47.02914 47.36993 A 8.5197716 9.2013531 0 1 1  29.989597,47.36993 A 8.5197716 9.2013531 0 1 1  47.02914 47.36993 z" sodipodi:ry="9.2013531" sodipodi:type="arc"/>
                  
            </a>
                
            <path style="fill:none" sodipodi:cx="43.962021" sodipodi:cy="48.392303" d="M 47.71072 48.392303 A 3.7486994 0 0 1 1  40.213321,48.392303 A 3.7486994 0 0 1 1  47.71072 48.392303 z" id="svg1.path3134" sodipodi:rx="3.7486994" sodipodi:ry="0" sodipodi:type="arc"/>
                
            <path style="fill:none;fill-rule:evenodd;stroke:#000000;stroke-width:1.24319649px;stroke-linecap:butt;stroke-linejoin:miter;stroke-opacity:1" d="M 50,61.33709 C 50,91.363211 50,92.247838 50,92.247838" id="svg1.path3136"/>
                
            <path style="fill:none;fill-rule:evenodd;stroke:#000000;stroke-width:1px;stroke-linecap:butt;stroke-linejoin:miter;stroke-opacity:1" d="M 69.760668,72.362183 C 69.760668,72.362183 69.760668,72.362183 50.239332,72.362183 C 30.239332,72.362183 30.239332,72.362183 30.239332,72.362183 L 30.239332,72.362183" id="svg1.path3138"/>
                
            <path style="fill:none;fill-rule:evenodd;stroke:#000000;stroke-width:1px;stroke-linecap:butt;stroke-linejoin:miter;stroke-opacity:1" d="M 30,111.45687 C 30,111.45687 30,111.45687 50,92.013532 C 70,111.45687 70,111.45687 70,111.45687" id="svg1.path3140"/>
              
          </g>
          
        </svg>
      </g>
    </g>
    <g font-size="13px" stroke-linecap="butt" transform="matrix(1,0,0,1,-91,-69)" text-rendering="geometricPrecision" font-family="sans-serif" shape-rendering="geometricPrecision" stroke-miterlimit="1.45">
      <text x="267.271" xml:space="preserve" y="203.0698" clip-path="url(#clipPath2)" stroke="none">Einreichende Partei</text>
    </g>
    <g text-rendering="geometricPrecision" shape-rendering="geometricPrecision" transform="matrix(1.4743,0,0,1.4523,675.7767,15)">
      <g clip-path="url(#clipPath4)">
        <svg xmlns:svg="http://www.w3.org/2000/svg" xmlns:sodipodi="http://sodipodi.sourceforge.net/DTD/sodipodi-0.dtd" xmlns:inkscape="http://www.inkscape.org/namespaces/inkscape" xmlns:dc="http://purl.org/dc/elements/1.1/" xmlns:cc="http://web.resource.org/cc/" xmlns:rdf="http://www.w3.org/1999/02/22-rdf-syntax-ns#" opacity="1" writing-mode="lr-tb" stop-color="rgb(0, 0, 0)" shape-rendering="auto" glyph-orientation-horizontal="0deg" color-profile="auto" lighting-color="rgb(255, 255, 255)" color="rgb(0, 0, 0)" font-weight="400" alignment-baseline="auto" font-style="normal" version="1.0" color-interpolation-filters="linearrgb" text-anchor="start" stroke-linecap="butt" color-interpolation="srgb" font-variant="normal" word-spacing="normal" fill-opacity="1" text-rendering="auto" clip-path="none" text-decoration="none" letter-spacing="normal" glyph-orientation-vertical="auto" display="inline" font-size-adjust="none" overflow="hidden" fill="rgb(0, 0, 0)" font-stretch="normal" stroke-dasharray="none" inkscape:version="0.45.1" id="svg2.svg2" stroke-miterlimit="4" stop-opacity="1" color-rendering="auto" font-size="12" sodipodi:docbase="C:\Daten\alberts\projects\yfx" pointer-events="visiblepainted" mask="none" direction="ltr" baseline-shift="baseline" sodipodi:docname="uml_actor.svg" enable-background="accumulate" fill-rule="nonzero" image-rendering="auto" stroke-dashoffset="0" inkscape:output_extension="org.inkscape.output.svg.inkscape" marker-end="none" width="41" clip="auto" cursor="auto" stroke="none" filter="none" visibility="visible" kerning="auto" stroke-width="1" font-family="&quot;Arial&quot;,&quot;Helvetica&quot;,sans-serif" flood-opacity="1" clip-rule="nonzero" src="none" height="68.997391" unicode-bidi="normal" sodipodi:version="0.32" stroke-linejoin="miter" stroke-opacity="1" flood-color="rgb(0, 0, 0)" dominant-baseline="auto" marker-start="none" marker-mid="none">
            
          <defs id="svg2.defs4"/>
            
  
          <metadata id="svg2.metadata7">
    
  </metadata>
            
          <g inkscape:groupmode="layer" id="svg2.layer1" transform="translate(-29.5,-42.959476)" inkscape:label="Ebene 1">
                
            <a id="svg2.a3142" transform="matrix(1.0873906,0,0,1,-4.4741999,0)">
                    
              <path transform="translate(11.586889,5.2908993)" style="fill:none;fill-rule:evenodd;stroke:#000000;stroke-width:1px;stroke-linecap:butt;stroke-linejoin:miter;stroke-opacity:1" sodipodi:cx="38.509369" sodipodi:cy="47.36993" sodipodi:rx="8.5197716" id="svg2.path2160" d="M 47.02914 47.36993 A 8.5197716 9.2013531 0 1 1  29.989597,47.36993 A 8.5197716 9.2013531 0 1 1  47.02914 47.36993 z" sodipodi:ry="9.2013531" sodipodi:type="arc"/>
                  
            </a>
                
            <path style="fill:none" sodipodi:cx="43.962021" sodipodi:cy="48.392303" d="M 47.71072 48.392303 A 3.7486994 0 0 1 1  40.213321,48.392303 A 3.7486994 0 0 1 1  47.71072 48.392303 z" id="svg2.path3134" sodipodi:rx="3.7486994" sodipodi:ry="0" sodipodi:type="arc"/>
                
            <path style="fill:none;fill-rule:evenodd;stroke:#000000;stroke-width:1.24319649px;stroke-linecap:butt;stroke-linejoin:miter;stroke-opacity:1" d="M 50,61.33709 C 50,91.363211 50,92.247838 50,92.247838" id="svg2.path3136"/>
                
            <path style="fill:none;fill-rule:evenodd;stroke:#000000;stroke-width:1px;stroke-linecap:butt;stroke-linejoin:miter;stroke-opacity:1" d="M 69.760668,72.362183 C 69.760668,72.362183 69.760668,72.362183 50.239332,72.362183 C 30.239332,72.362183 30.239332,72.362183 30.239332,72.362183 L 30.239332,72.362183" id="svg2.path3138"/>
                
            <path style="fill:none;fill-rule:evenodd;stroke:#000000;stroke-width:1px;stroke-linecap:butt;stroke-linejoin:miter;stroke-opacity:1" d="M 30,111.45687 C 30,111.45687 30,111.45687 50,92.013532 C 70,111.45687 70,111.45687 70,111.45687" id="svg2.path3140"/>
              
          </g>
          
        </svg>
      </g>
    </g>
    <g font-size="13px" stroke-linecap="butt" transform="matrix(1,0,0,1,-91,-69)" text-rendering="geometricPrecision" font-family="sans-serif" shape-rendering="geometricPrecision" stroke-miterlimit="1.45">
      <text x="722.1992" xml:space="preserve" y="203.0698" clip-path="url(#clipPath2)" stroke="none">Kerngruppe VDA 231-301</text>
    </g>
    <g text-rendering="geometricPrecision" shape-rendering="geometricPrecision" transform="matrix(1.4743,0,0,1.4523,1137.7767,15)">
      <g clip-path="url(#clipPath5)">
        <svg xmlns:svg="http://www.w3.org/2000/svg" xmlns:sodipodi="http://sodipodi.sourceforge.net/DTD/sodipodi-0.dtd" xmlns:inkscape="http://www.inkscape.org/namespaces/inkscape" xmlns:dc="http://purl.org/dc/elements/1.1/" xmlns:cc="http://web.resource.org/cc/" xmlns:rdf="http://www.w3.org/1999/02/22-rdf-syntax-ns#" opacity="1" writing-mode="lr-tb" stop-color="rgb(0, 0, 0)" shape-rendering="auto" glyph-orientation-horizontal="0deg" color-profile="auto" lighting-color="rgb(255, 255, 255)" color="rgb(0, 0, 0)" font-weight="400" alignment-baseline="auto" font-style="normal" version="1.0" color-interpolation-filters="linearrgb" text-anchor="start" stroke-linecap="butt" color-interpolation="srgb" font-variant="normal" word-spacing="normal" fill-opacity="1" text-rendering="auto" clip-path="none" text-decoration="none" letter-spacing="normal" glyph-orientation-vertical="auto" display="inline" font-size-adjust="none" overflow="hidden" fill="rgb(0, 0, 0)" font-stretch="normal" stroke-dasharray="none" inkscape:version="0.45.1" id="svg3.svg2" stroke-miterlimit="4" stop-opacity="1" color-rendering="auto" font-size="12" sodipodi:docbase="C:\Daten\alberts\projects\yfx" pointer-events="visiblepainted" mask="none" direction="ltr" baseline-shift="baseline" sodipodi:docname="uml_actor.svg" enable-background="accumulate" fill-rule="nonzero" image-rendering="auto" stroke-dashoffset="0" inkscape:output_extension="org.inkscape.output.svg.inkscape" marker-end="none" width="41" clip="auto" cursor="auto" stroke="none" filter="none" visibility="visible" kerning="auto" stroke-width="1" font-family="&quot;Arial&quot;,&quot;Helvetica&quot;,sans-serif" flood-opacity="1" clip-rule="nonzero" src="none" height="68.997391" unicode-bidi="normal" sodipodi:version="0.32" stroke-linejoin="miter" stroke-opacity="1" flood-color="rgb(0, 0, 0)" dominant-baseline="auto" marker-start="none" marker-mid="none">
            
          <defs id="svg3.defs4"/>
            
  
          <metadata id="svg3.metadata7">
    
  </metadata>
            
          <g inkscape:groupmode="layer" id="svg3.layer1" transform="translate(-29.5,-42.959476)" inkscape:label="Ebene 1">
                
            <a id="svg3.a3142" transform="matrix(1.0873906,0,0,1,-4.4741999,0)">
                    
              <path transform="translate(11.586889,5.2908993)" style="fill:none;fill-rule:evenodd;stroke:#000000;stroke-width:1px;stroke-linecap:butt;stroke-linejoin:miter;stroke-opacity:1" sodipodi:cx="38.509369" sodipodi:cy="47.36993" sodipodi:rx="8.5197716" id="svg3.path2160" d="M 47.02914 47.36993 A 8.5197716 9.2013531 0 1 1  29.989597,47.36993 A 8.5197716 9.2013531 0 1 1  47.02914 47.36993 z" sodipodi:ry="9.2013531" sodipodi:type="arc"/>
                  
            </a>
                
            <path style="fill:none" sodipodi:cx="43.962021" sodipodi:cy="48.392303" d="M 47.71072 48.392303 A 3.7486994 0 0 1 1  40.213321,48.392303 A 3.7486994 0 0 1 1  47.71072 48.392303 z" id="svg3.path3134" sodipodi:rx="3.7486994" sodipodi:ry="0" sodipodi:type="arc"/>
                
            <path style="fill:none;fill-rule:evenodd;stroke:#000000;stroke-width:1.24319649px;stroke-linecap:butt;stroke-linejoin:miter;stroke-opacity:1" d="M 50,61.33709 C 50,91.363211 50,92.247838 50,92.247838" id="svg3.path3136"/>
                
            <path style="fill:none;fill-rule:evenodd;stroke:#000000;stroke-width:1px;stroke-linecap:butt;stroke-linejoin:miter;stroke-opacity:1" d="M 69.760668,72.362183 C 69.760668,72.362183 69.760668,72.362183 50.239332,72.362183 C 30.239332,72.362183 30.239332,72.362183 30.239332,72.362183 L 30.239332,72.362183" id="svg3.path3138"/>
                
            <path style="fill:none;fill-rule:evenodd;stroke:#000000;stroke-width:1px;stroke-linecap:butt;stroke-linejoin:miter;stroke-opacity:1" d="M 30,111.45687 C 30,111.45687 30,111.45687 50,92.013532 C 70,111.45687 70,111.45687 70,111.45687" id="svg3.path3140"/>
              
          </g>
          
        </svg>
      </g>
    </g>
    <g font-size="13px" stroke-linecap="butt" transform="matrix(1,0,0,1,-91,-69)" text-rendering="geometricPrecision" font-family="sans-serif" shape-rendering="geometricPrecision" stroke-miterlimit="1.45">
      <text x="1218.5305" xml:space="preserve" y="203.0698" clip-path="url(#clipPath2)" stroke="none">Projektgruppe</text>
    </g>
    <g font-size="13px" stroke-linecap="butt" transform="matrix(1,0,0,1,-91,-69)" text-rendering="geometricPrecision" font-family="sans-serif" shape-rendering="geometricPrecision" stroke-miterlimit="1.45">
      <text x="1175.1824" xml:space="preserve" y="218.9961" clip-path="url(#clipPath2)" stroke="none">Werkstoffdaten-Management</text>
    </g>
    <g fill="url(#linearGradient2)" text-rendering="geometricPrecision" shape-rendering="geometricPrecision" transform="matrix(1,0,0,1,-91,-69)" stroke="url(#linearGradient2)">
      <rect x="626" y="604" clip-path="url(#clipPath2)" width="342" rx="30" ry="30" height="60" stroke="none"/>
    </g>
    <g text-rendering="geometricPrecision" stroke-miterlimit="1.45" shape-rendering="geometricPrecision" transform="matrix(1,0,0,1,-91,-69)" stroke-linecap="butt">
      <rect x="626" y="604" clip-path="url(#clipPath2)" fill="none" width="342" rx="30" ry="30" height="60"/>
      <text x="729.6289" xml:space="preserve" y="624.0127" clip-path="url(#clipPath2)" font-family="sans-serif" stroke="none">Prüfung des Entwurfs auf</text>
      <text x="688.2852" xml:space="preserve" y="638.7139" clip-path="url(#clipPath2)" font-family="sans-serif" stroke="none">Übereinstimmung mit Basis-Konzept und</text>
      <text x="643.2266" xml:space="preserve" y="653.415" clip-path="url(#clipPath2)" font-family="sans-serif" stroke="none">Eignung zum Datenaustausch der abzubildenden Prüfung</text>
    </g>
    <g fill="url(#linearGradient3)" text-rendering="geometricPrecision" shape-rendering="geometricPrecision" transform="matrix(1,0,0,1,-91,-69)" stroke="url(#linearGradient3)">
      <path d="M463 460.25 L586 460.25 L586 518.4375 Q555.25 501.8125 524.5 518.4375 Q493.75 535.0625 463 518.4375 Z" stroke="none" clip-path="url(#clipPath2)"/>
    </g>
    <g text-rendering="geometricPrecision" stroke-miterlimit="1.45" shape-rendering="geometricPrecision" transform="matrix(1,0,0,1,-91,-69)" stroke-linecap="butt">
      <path fill="none" d="M463 460.25 L586 460.25 L586 518.4375 Q555.25 501.8125 524.5 518.4375 Q493.75 535.0625 463 518.4375 Z" clip-path="url(#clipPath2)"/>
      <text x="473.4736" xml:space="preserve" y="490.8633" clip-path="url(#clipPath2)" font-family="sans-serif" stroke="none">Spezielles Schema</text>
      <text x="504.1592" xml:space="preserve" y="505.5645" clip-path="url(#clipPath2)" font-family="sans-serif" stroke="none">Entwurf</text>
    </g>
    <g fill="url(#linearGradient4)" text-rendering="geometricPrecision" shape-rendering="geometricPrecision" transform="matrix(1,0,0,1,-91,-69)" stroke="url(#linearGradient4)">
      <rect x="199" y="538.5" clip-path="url(#clipPath2)" width="234" rx="26.25" ry="26.25" height="52.5" stroke="none"/>
    </g>
    <g text-rendering="geometricPrecision" stroke-miterlimit="1.45" shape-rendering="geometricPrecision" transform="matrix(1,0,0,1,-91,-69)" stroke-linecap="butt">
      <rect x="199" y="538.5" clip-path="url(#clipPath2)" fill="none" width="234" rx="26.25" ry="26.25" height="52.5"/>
      <text x="249.6338" xml:space="preserve" y="562.1133" clip-path="url(#clipPath2)" font-family="sans-serif" stroke="none">Einreichen des Entwurfs:</text>
      <text x="229.293" xml:space="preserve" y="576.8145" clip-path="url(#clipPath2)" font-family="sans-serif" stroke="none">Upload GitHub, Nachricht an KG</text>
    </g>
    <g fill="url(#linearGradient5)" text-rendering="geometricPrecision" shape-rendering="geometricPrecision" transform="matrix(1,0,0,1,-91,-69)" stroke="url(#linearGradient5)">
      <rect x="196" y="257" clip-path="url(#clipPath2)" width="240" rx="20" ry="20" height="40" stroke="none"/>
    </g>
    <g text-rendering="geometricPrecision" stroke-miterlimit="1.45" shape-rendering="geometricPrecision" transform="matrix(1,0,0,1,-91,-69)" stroke-linecap="butt">
      <rect x="196" y="257" clip-path="url(#clipPath2)" fill="none" width="240" rx="20" ry="20" height="40"/>
      <text x="266.6436" xml:space="preserve" y="274.3633" clip-path="url(#clipPath2)" font-family="sans-serif" stroke="none">Absichtserklärung:</text>
      <text x="221.6172" xml:space="preserve" y="289.0645" clip-path="url(#clipPath2)" font-family="sans-serif" stroke="none">Erstellung eines spezielles Schema</text>
    </g>
    <g fill="url(#linearGradient6)" text-rendering="geometricPrecision" shape-rendering="geometricPrecision" transform="matrix(1,0,0,1,-91,-69)" stroke="url(#linearGradient6)">
      <rect x="658" y="312" clip-path="url(#clipPath2)" width="278" rx="20" ry="20" height="40" stroke="none"/>
    </g>
    <g text-rendering="geometricPrecision" stroke-miterlimit="1.45" shape-rendering="geometricPrecision" transform="matrix(1,0,0,1,-91,-69)" stroke-linecap="butt">
      <rect x="658" y="312" clip-path="url(#clipPath2)" fill="none" width="278" rx="20" ry="20" height="40"/>
      <text x="675.2715" xml:space="preserve" y="336.7139" clip-path="url(#clipPath2)" font-family="sans-serif" stroke="none">Registrierung in Liste der speziellen Schemas</text>
    </g>
    <g fill="url(#linearGradient7)" text-rendering="geometricPrecision" shape-rendering="geometricPrecision" transform="matrix(1,0,0,1,-91,-69)" stroke="url(#linearGradient7)">
      <rect x="658" y="382" clip-path="url(#clipPath2)" width="278" rx="20" ry="20" height="40" stroke="none"/>
    </g>
    <g text-rendering="geometricPrecision" stroke-miterlimit="1.45" shape-rendering="geometricPrecision" transform="matrix(1,0,0,1,-91,-69)" stroke-linecap="butt">
      <rect x="658" y="382" clip-path="url(#clipPath2)" fill="none" width="278" rx="20" ry="20" height="40"/>
      <text x="687.9395" xml:space="preserve" y="399.3633" clip-path="url(#clipPath2)" font-family="sans-serif" stroke="none">Erstellung Unterverzeichnis und Vergabe</text>
      <text x="706.2881" xml:space="preserve" y="414.0645" clip-path="url(#clipPath2)" font-family="sans-serif" stroke="none">entsprechender Rechte im GitHub</text>
    </g>
    <g fill="url(#linearGradient8)" text-rendering="geometricPrecision" shape-rendering="geometricPrecision" transform="matrix(1,0,0,1,-91,-69)" stroke="url(#linearGradient8)">
      <path d="M797 694 L895 757 L797 820 L699 757 Z" stroke="none" clip-path="url(#clipPath2)"/>
    </g>
    <g text-rendering="geometricPrecision" stroke-miterlimit="1.45" shape-rendering="geometricPrecision" transform="matrix(1,0,0,1,-91,-69)" stroke-linecap="butt">
      <path fill="none" d="M797 694 L895 757 L797 820 L699 757 Z" clip-path="url(#clipPath2)"/>
      <text x="732.2949" xml:space="preserve" y="754.3633" clip-path="url(#clipPath2)" font-family="sans-serif" stroke="none">Entwurf von Kerngruppe</text>
      <text x="760.3086" xml:space="preserve" y="769.0645" clip-path="url(#clipPath2)" font-family="sans-serif" stroke="none">angenommen</text>
    </g>
    <g fill="url(#linearGradient9)" text-rendering="geometricPrecision" shape-rendering="geometricPrecision" transform="matrix(1,0,0,1,-91,-69)" stroke="url(#linearGradient9)">
      <rect x="1144.5" y="908" clip-path="url(#clipPath2)" width="229" rx="20" ry="20" height="40" stroke="none"/>
    </g>
    <g text-rendering="geometricPrecision" stroke-miterlimit="1.45" shape-rendering="geometricPrecision" transform="matrix(1,0,0,1,-91,-69)" stroke-linecap="butt">
      <rect x="1144.5" y="908" clip-path="url(#clipPath2)" fill="none" width="229" rx="20" ry="20" height="40"/>
      <text x="1170.623" xml:space="preserve" y="932.7139" clip-path="url(#clipPath2)" font-family="sans-serif" stroke="none">Abstimmung zur Veröffentlichung</text>
    </g>
    <g fill="url(#linearGradient10)" text-rendering="geometricPrecision" shape-rendering="geometricPrecision" transform="matrix(1,0,0,1,-91,-69)" stroke="url(#linearGradient10)">
      <rect x="199" y="806" clip-path="url(#clipPath2)" width="234" rx="20" ry="20" height="40" stroke="none"/>
    </g>
    <g text-rendering="geometricPrecision" stroke-miterlimit="1.45" shape-rendering="geometricPrecision" transform="matrix(1,0,0,1,-91,-69)" stroke-linecap="butt">
      <rect x="199" y="806" clip-path="url(#clipPath2)" fill="none" width="234" rx="20" ry="20" height="40"/>
      <text x="211.6064" xml:space="preserve" y="830.7139" clip-path="url(#clipPath2)" font-family="sans-serif" stroke="none">Überarbeitung des speziellen Schemas</text>
    </g>
    <g fill="url(#linearGradient11)" text-rendering="geometricPrecision" shape-rendering="geometricPrecision" transform="matrix(1,0,0,1,-91,-69)" stroke="url(#linearGradient11)">
      <path d="M463 792.75 L586 792.75 L586 850.9375 Q555.25 834.3125 524.5 850.9375 Q493.75 867.5625 463 850.9375 Z" stroke="none" clip-path="url(#clipPath2)"/>
    </g>
    <g text-rendering="geometricPrecision" stroke-miterlimit="1.45" shape-rendering="geometricPrecision" transform="matrix(1,0,0,1,-91,-69)" stroke-linecap="butt">
      <path fill="none" d="M463 792.75 L586 792.75 L586 850.9375 Q555.25 834.3125 524.5 850.9375 Q493.75 867.5625 463 850.9375 Z" clip-path="url(#clipPath2)"/>
      <text x="473.4736" xml:space="preserve" y="823.3633" clip-path="url(#clipPath2)" font-family="sans-serif" stroke="none">Spezielles Schema</text>
      <text x="480.1445" xml:space="preserve" y="838.0645" clip-path="url(#clipPath2)" font-family="sans-serif" stroke="none">überarb. Entwurf</text>
    </g>
    <g fill="url(#linearGradient12)" text-rendering="geometricPrecision" shape-rendering="geometricPrecision" transform="matrix(1,0,0,1,-91,-69)" stroke="url(#linearGradient12)">
      <path d="M1259 978 L1360 1032.5 L1259 1087 L1158 1032.5 Z" stroke="none" clip-path="url(#clipPath2)"/>
    </g>
    <g text-rendering="geometricPrecision" stroke-miterlimit="1.45" shape-rendering="geometricPrecision" transform="matrix(1,0,0,1,-91,-69)" stroke-linecap="butt">
      <path fill="none" d="M1259 978 L1360 1032.5 L1259 1087 L1158 1032.5 Z" clip-path="url(#clipPath2)"/>
      <text x="1188.2949" xml:space="preserve" y="1029.8633" clip-path="url(#clipPath2)" font-family="sans-serif" stroke="none">Entwurf von Projektgruppe</text>
      <text x="1222.3086" xml:space="preserve" y="1044.5645" clip-path="url(#clipPath2)" font-family="sans-serif" stroke="none">angenommen</text>
    </g>
    <g fill="url(#linearGradient13)" text-rendering="geometricPrecision" shape-rendering="geometricPrecision" transform="matrix(1,0,0,1,-91,-69)" stroke="url(#linearGradient13)">
      <rect x="635.5" y="1127" clip-path="url(#clipPath2)" width="323" rx="37" ry="37" height="74" stroke="none"/>
    </g>
    <g text-rendering="geometricPrecision" stroke-miterlimit="1.45" shape-rendering="geometricPrecision" transform="matrix(1,0,0,1,-91,-69)" stroke-linecap="butt">
      <rect x="635.5" y="1127" clip-path="url(#clipPath2)" fill="none" width="323" rx="37" ry="37" height="74"/>
      <text x="685.6016" xml:space="preserve" y="1154.0127" clip-path="url(#clipPath2)" font-family="sans-serif" stroke="none">Veröffentlichung des speziellen Schemas:</text>
      <text x="731.6387" xml:space="preserve" y="1168.7139" clip-path="url(#clipPath2)" font-family="sans-serif" stroke="none">Versionierung im GitHub</text>
      <text x="668.6006" xml:space="preserve" y="1183.415" clip-path="url(#clipPath2)" font-family="sans-serif" stroke="none">Aufnahme in Liste veröffentlichter Sub-Schemas</text>
    </g>
    <g fill="url(#linearGradient14)" text-rendering="geometricPrecision" shape-rendering="geometricPrecision" transform="matrix(1,0,0,1,-91,-69)" stroke="url(#linearGradient14)">
      <rect x="682.5" y="857" clip-path="url(#clipPath2)" width="229" rx="20" ry="20" height="40" stroke="none"/>
    </g>
    <g text-rendering="geometricPrecision" stroke-miterlimit="1.45" shape-rendering="geometricPrecision" transform="matrix(1,0,0,1,-91,-69)" stroke-linecap="butt">
      <rect x="682.5" y="857" clip-path="url(#clipPath2)" fill="none" width="229" rx="20" ry="20" height="40"/>
      <text x="714.6084" xml:space="preserve" y="881.7139" clip-path="url(#clipPath2)" font-family="sans-serif" stroke="none">Einreichenden benachrichtigen</text>
    </g>
    <g fill="url(#linearGradient15)" text-rendering="geometricPrecision" shape-rendering="geometricPrecision" transform="matrix(1,0,0,1,-91,-69)" stroke="url(#linearGradient15)">
      <rect x="682.5" y="1231" clip-path="url(#clipPath2)" width="229" rx="20" ry="20" height="40" stroke="none"/>
    </g>
    <g text-rendering="geometricPrecision" stroke-miterlimit="1.45" shape-rendering="geometricPrecision" transform="matrix(1,0,0,1,-91,-69)" stroke-linecap="butt">
      <rect x="682.5" y="1231" clip-path="url(#clipPath2)" fill="none" width="229" rx="20" ry="20" height="40"/>
      <text x="714.6084" xml:space="preserve" y="1255.7139" clip-path="url(#clipPath2)" font-family="sans-serif" stroke="none">Einreichenden benachrichtigen</text>
    </g>
    <g text-rendering="geometricPrecision" stroke-miterlimit="1.45" shape-rendering="geometricPrecision" transform="matrix(1,0,0,1,-91,-69)" stroke-linecap="butt">
      <path fill="none" d="M432.7977 491.3009 L455.0241 491.8339" clip-path="url(#clipPath2)"/>
      <path d="M463.0219 492.0257 L451.1452 486.7395 L454.0244 491.8099 L450.9054 496.7366 Z" clip-path="url(#clipPath2)" stroke="none"/>
      <path fill="none" d="M316 508.4933 L316 530.517" clip-path="url(#clipPath2)"/>
      <path d="M316 538.517 L321 526.517 L316 529.517 L311 526.517 Z" clip-path="url(#clipPath2)" stroke="none"/>
      <path fill="none" d="M432.9913 564.75 L797 564.75 L797 596.0074" clip-path="url(#clipPath2)"/>
      <path d="M797 604.0074 L802 592.0074 L797 595.0074 L792 592.0074 Z" clip-path="url(#clipPath2)" stroke="none"/>
      <path fill="none" d="M435.9858 275.7527 L797 272 L797 303.9902" clip-path="url(#clipPath2)"/>
      <path d="M797 311.9902 L802 299.9902 L797 302.9902 L792 299.9902 Z" clip-path="url(#clipPath2)" stroke="none"/>
      <path fill="none" d="M797 351.9951 L797 374.0273" clip-path="url(#clipPath2)"/>
      <path d="M797 382.0273 L802 370.0273 L797 373.0273 L792 370.0273 Z" clip-path="url(#clipPath2)" stroke="none"/>
      <path fill="none" d="M657.9903 402 L316 402 L316 460.5222" clip-path="url(#clipPath2)"/>
      <path d="M316 468.5222 L321 456.5222 L316 459.5222 L311 456.5222 Z" clip-path="url(#clipPath2)" stroke="none"/>
      <path fill="none" d="M797 663.9993 L797 686.0156" clip-path="url(#clipPath2)"/>
      <path d="M797 694.0156 L802 682.0156 L797 685.0156 L792 682.0156 Z" clip-path="url(#clipPath2)" stroke="none"/>
      <path fill="none" d="M698.9739 757 L316 757 L316 798.021" clip-path="url(#clipPath2)"/>
      <path d="M316 806.021 L321 794.021 L316 797.021 L311 794.021 Z" clip-path="url(#clipPath2)" stroke="none"/>
      <text x="669.3125" xml:space="preserve" y="731.7139" clip-path="url(#clipPath2)" font-family="sans-serif" stroke="none">nein</text>
      <path fill="none" d="M198.9773 826 L106 826 L106 564.75 L190.9773 564.75" clip-path="url(#clipPath2)"/>
      <path d="M198.9773 564.75 L186.9773 559.75 L189.9773 564.75 L186.9773 569.75 Z" clip-path="url(#clipPath2)" stroke="none"/>
      <path fill="none" d="M433.0013 826 L454.9796 826" clip-path="url(#clipPath2)"/>
      <path d="M462.9796 826 L450.9796 821 L453.9796 826 L450.9796 831 Z" clip-path="url(#clipPath2)" stroke="none"/>
      <path fill="none" d="M1259 947.9764 L1259 969.9807" clip-path="url(#clipPath2)"/>
      <path d="M1259 977.9807 L1264 965.9807 L1259 968.9807 L1254 965.9807 Z" clip-path="url(#clipPath2)" stroke="none"/>
      <path fill="none" d="M1158.0177 1032.5 L316 1032.5 L316 853.9896" clip-path="url(#clipPath2)"/>
      <path d="M316 845.9896 L311 857.9896 L316 854.9896 L321 857.9896 Z" clip-path="url(#clipPath2)" stroke="none"/>
      <text x="1128.3125" xml:space="preserve" y="1007.3768" clip-path="url(#clipPath2)" font-family="sans-serif" stroke="none">nein</text>
      <path fill="none" d="M1259 1086.9813 L1259 1164 L966.4913 1164" clip-path="url(#clipPath2)"/>
      <path d="M958.4913 1164 L970.4913 1169 L967.4913 1164 L970.4913 1159 Z" clip-path="url(#clipPath2)" stroke="none"/>
      <text x="1284.3301" xml:space="preserve" y="1106.0645" clip-path="url(#clipPath2)" font-family="sans-serif" stroke="none">ja</text>
      <path fill="none" d="M797 820.0176 L797 848.9949" clip-path="url(#clipPath2)"/>
      <path d="M797 856.9949 L802 844.9949 L797 847.9949 L792 844.9949 Z" clip-path="url(#clipPath2)" stroke="none"/>
      <text x="822.3301" xml:space="preserve" y="839.0645" clip-path="url(#clipPath2)" font-family="sans-serif" stroke="none">ja</text>
      <path fill="none" d="M911.5131 877 L1259 877 L1259 900.0283" clip-path="url(#clipPath2)"/>
      <path d="M1259 908.0283 L1264 896.0283 L1259 899.0283 L1254 896.0283 Z" clip-path="url(#clipPath2)" stroke="none"/>
      <path fill="none" d="M797 1201.0005 L797 1223.0295" clip-path="url(#clipPath2)"/>
      <path d="M797 1231.0295 L802 1219.0295 L797 1222.0295 L792 1219.0295 Z" clip-path="url(#clipPath2)" stroke="none"/>
    </g>
  </g>
</svg>
