<?xml version="1.0" encoding="UTF-8"?><svg xmlns="http://www.w3.org/2000/svg" xmlns:xlink="http://www.w3.org/1999/xlink" fill-opacity="1" color-rendering="auto" color-interpolation="auto" text-rendering="auto" stroke="black" stroke-linecap="square" width="1356" stroke-miterlimit="10" shape-rendering="auto" stroke-opacity="1" fill="black" stroke-dasharray="none" font-weight="normal" stroke-width="1" height="1451" font-family="'Dialog'" font-style="normal" stroke-linejoin="miter" font-size="12px" stroke-dashoffset="0" image-rendering="auto">
  <!--Generated by ySVG 2.6-->
  <defs id="genericDefs"/>
  <g>
    <g fill="white" text-rendering="geometricPrecision" shape-rendering="geometricPrecision" transform="translate(-91,-69)" stroke="white">
      <rect x="91" width="1356" height="1451" y="69" clip-path="url(#clipPath2)" stroke="none"/>
    </g>
    <g fill="url(#linearGradient1)" text-rendering="geometricPrecision" shape-rendering="geometricPrecision" transform="matrix(1,0,0,1,-91,-69)" stroke="url(#linearGradient1)">
      <rect x="199" y="468.5" clip-path="url(#clipPath2)" width="234" rx="20" ry="20" height="40" stroke="none"/>
    </g>
    <g text-rendering="geometricPrecision" stroke-miterlimit="1.45" shape-rendering="geometricPrecision" transform="matrix(1,0,0,1,-91,-69)" stroke-linecap="butt">
      <rect x="199" y="468.5" clip-path="url(#clipPath2)" fill="none" width="234" rx="20" ry="20" height="40"/>
      <text x="222.9502" xml:space="preserve" y="493.2139" clip-path="url(#clipPath2)" font-family="sans-serif" stroke="none">Erstellung des speziellen Schemas</text>
    </g>
    <g text-rendering="geometricPrecision" shape-rendering="geometricPrecision" transform="matrix(1.4743,0,0,1.4523,202.7767,15)">
      <g clip-path="url(#clipPath3)">
        <svg xmlns:svg="http://www.w3.org/2000/svg" xmlns:sodipodi="http://sodipodi.sourceforge.net/DTD/sodipodi-0.dtd" xmlns:inkscape="http://www.inkscape.org/namespaces/inkscape" xmlns:dc="http://purl.org/dc/elements/1.1/" xmlns:cc="http://web.resource.org/cc/" xmlns:rdf="http://www.w3.org/1999/02/22-rdf-syntax-ns#" opacity="1" writing-mode="lr-tb" stop-color="rgb(0, 0, 0)" shape-rendering="auto" glyph-orientation-horizontal="0deg" color-profile="auto" lighting-color="rgb(255, 255, 255)" color="rgb(0, 0, 0)" font-weight="400" alignment-baseline="auto" font-style="normal" version="1.0" color-interpolation-filters="linearrgb" text-anchor="start" stroke-linecap="butt" color-interpolation="srgb" font-variant="normal" word-spacing="normal" fill-opacity="1" text-rendering="auto" clip-path="none" text-decoration="none" letter-spacing="normal" glyph-orientation-vertical="auto" display="inline" font-size-adjust="none" overflow="hidden" fill="rgb(0, 0, 0)" font-stretch="normal" stroke-dasharray="none" inkscape:version="0.45.1" id="svg1.svg2" stroke-miterlimit="4" stop-opacity="1" color-rendering="auto" font-size="12" sodipodi:docbase="C:\Daten\alberts\projects\yfx" pointer-events="visiblepainted" mask="none" direction="ltr" baseline-shift="baseline" sodipodi:docname="uml_actor.svg" enable-background="accumulate" fill-rule="nonzero" image-rendering="auto" stroke-dashoffset="0" inkscape:output_extension="org.inkscape.output.svg.inkscape" marker-end="none" width="41" clip="auto" cursor="auto" stroke="none" filter="none" visibility="visible" kerning="auto" stroke-width="1" font-family="&quot;Arial&quot;,&quot;Helvetica&quot;,sans-serif" flood-opacity="1" clip-rule="nonzero" src="none" height="68.997391" unicode-bidi="normal" sodipodi:version="0.32" stroke-linejoin="miter" stroke-opacity="1" flood-color="rgb(0, 0, 0)" dominant-baseline="auto" marker-start="none" marker-mid="none">
            
          <defs id="svg1.defs4">
            <linearGradient x1="199" gradientUnits="userSpaceOnUse" x2="433" y1="468.5" y2="508.5" id="linearGradient1" spreadMethod="reflect">
              <stop stop-opacity="1" stop-color="rgb(221,221,221)" offset="0%"/>
              <stop stop-opacity="1" stop-color="rgb(221,221,221)" offset="100%"/>
            </linearGradient>
            <linearGradient x1="626" gradientUnits="userSpaceOnUse" x2="968" y1="590.5808" y2="624.1313" id="linearGradient2" spreadMethod="reflect">
              <stop stop-opacity="1" stop-color="rgb(221,221,221)" offset="0%"/>
              <stop stop-opacity="1" stop-color="rgb(221,221,221)" offset="100%"/>
            </linearGradient>
            <linearGradient x1="463" gradientUnits="userSpaceOnUse" x2="586" y1="460.25" y2="526.75" id="linearGradient3" spreadMethod="reflect">
              <stop stop-opacity="1" stop-color="rgb(221,221,221)" offset="0%"/>
              <stop stop-opacity="1" stop-color="rgb(221,221,221)" offset="100%"/>
            </linearGradient>
            <linearGradient x1="199" gradientUnits="userSpaceOnUse" x2="433" y1="538.5" y2="591" id="linearGradient4" spreadMethod="reflect">
              <stop stop-opacity="1" stop-color="rgb(221,221,221)" offset="0%"/>
              <stop stop-opacity="1" stop-color="rgb(221,221,221)" offset="100%"/>
            </linearGradient>
            <linearGradient x1="196" gradientUnits="userSpaceOnUse" x2="436" y1="257" y2="297" id="linearGradient5" spreadMethod="reflect">
              <stop stop-opacity="1" stop-color="rgb(221,221,221)" offset="0%"/>
              <stop stop-opacity="1" stop-color="rgb(221,221,221)" offset="100%"/>
            </linearGradient>
            <linearGradient x1="658" gradientUnits="userSpaceOnUse" x2="936" y1="312" y2="352" id="linearGradient6" spreadMethod="reflect">
              <stop stop-opacity="1" stop-color="rgb(221,221,221)" offset="0%"/>
              <stop stop-opacity="1" stop-color="rgb(221,221,221)" offset="100%"/>
            </linearGradient>
            <linearGradient x1="658" gradientUnits="userSpaceOnUse" x2="936" y1="382" y2="422" id="linearGradient7" spreadMethod="reflect">
              <stop stop-opacity="1" stop-color="rgb(221,221,221)" offset="0%"/>
              <stop stop-opacity="1" stop-color="rgb(221,221,221)" offset="100%"/>
            </linearGradient>
            <linearGradient x1="699" gradientUnits="userSpaceOnUse" x2="895" y1="715.8792" y2="841.8792" id="linearGradient8" spreadMethod="reflect">
              <stop stop-opacity="1" stop-color="rgb(221,221,221)" offset="0%"/>
              <stop stop-opacity="1" stop-color="rgb(221,221,221)" offset="100%"/>
            </linearGradient>
            <linearGradient x1="1144.5" gradientUnits="userSpaceOnUse" x2="1373.5" y1="929.8792" y2="969.8792" id="linearGradient9" spreadMethod="reflect">
              <stop stop-opacity="1" stop-color="rgb(221,221,221)" offset="0%"/>
              <stop stop-opacity="1" stop-color="rgb(221,221,221)" offset="100%"/>
            </linearGradient>
            <linearGradient x1="199" gradientUnits="userSpaceOnUse" x2="433" y1="827.8792" y2="867.8792" id="linearGradient10" spreadMethod="reflect">
              <stop stop-opacity="1" stop-color="rgb(221,221,221)" offset="0%"/>
              <stop stop-opacity="1" stop-color="rgb(221,221,221)" offset="100%"/>
            </linearGradient>
            <linearGradient x1="463" gradientUnits="userSpaceOnUse" x2="586" y1="814.6292" y2="881.1292" id="linearGradient11" spreadMethod="reflect">
              <stop stop-opacity="1" stop-color="rgb(221,221,221)" offset="0%"/>
              <stop stop-opacity="1" stop-color="rgb(221,221,221)" offset="100%"/>
            </linearGradient>
            <linearGradient x1="1158" gradientUnits="userSpaceOnUse" x2="1360" y1="999.8792" y2="1108.8792" id="linearGradient12" spreadMethod="reflect">
              <stop stop-opacity="1" stop-color="rgb(221,221,221)" offset="0%"/>
              <stop stop-opacity="1" stop-color="rgb(221,221,221)" offset="100%"/>
            </linearGradient>
            <linearGradient x1="647.1689" gradientUnits="userSpaceOnUse" x2="970.1689" y1="1353.9144" y2="1427.9144" id="linearGradient13" spreadMethod="reflect">
              <stop stop-opacity="1" stop-color="rgb(221,221,221)" offset="0%"/>
              <stop stop-opacity="1" stop-color="rgb(221,221,221)" offset="100%"/>
            </linearGradient>
            <linearGradient x1="682.5" gradientUnits="userSpaceOnUse" x2="911.5" y1="878.8792" y2="918.8792" id="linearGradient14" spreadMethod="reflect">
              <stop stop-opacity="1" stop-color="rgb(221,221,221)" offset="0%"/>
              <stop stop-opacity="1" stop-color="rgb(221,221,221)" offset="100%"/>
            </linearGradient>
            <linearGradient x1="694.1689" gradientUnits="userSpaceOnUse" x2="923.1689" y1="1464.0042" y2="1504.0042" id="linearGradient15" spreadMethod="reflect">
              <stop stop-opacity="1" stop-color="rgb(221,221,221)" offset="0%"/>
              <stop stop-opacity="1" stop-color="rgb(221,221,221)" offset="100%"/>
            </linearGradient>
            <linearGradient x1="626" gradientUnits="userSpaceOnUse" x2="968" y1="653.23" y2="693.23" id="linearGradient16" spreadMethod="reflect">
              <stop stop-opacity="1" stop-color="rgb(221,221,221)" offset="0%"/>
              <stop stop-opacity="1" stop-color="rgb(221,221,221)" offset="100%"/>
            </linearGradient>
            <linearGradient x1="691.6689" gradientUnits="userSpaceOnUse" x2="925.6689" y1="1039.488" y2="1079.488" id="linearGradient17" spreadMethod="reflect">
              <stop stop-opacity="1" stop-color="rgb(221,221,221)" offset="0%"/>
              <stop stop-opacity="1" stop-color="rgb(221,221,221)" offset="100%"/>
            </linearGradient>
            <linearGradient x1="707.6689" gradientUnits="userSpaceOnUse" x2="909.6689" y1="1126.6455" y2="1235.6455" id="linearGradient18" spreadMethod="reflect">
              <stop stop-opacity="1" stop-color="rgb(221,221,221)" offset="0%"/>
              <stop stop-opacity="1" stop-color="rgb(221,221,221)" offset="100%"/>
            </linearGradient>
            <linearGradient x1="694.1689" gradientUnits="userSpaceOnUse" x2="923.1689" y1="1277.8248" y2="1317.8248" id="linearGradient19" spreadMethod="reflect">
              <stop stop-opacity="1" stop-color="rgb(221,221,221)" offset="0%"/>
              <stop stop-opacity="1" stop-color="rgb(221,221,221)" offset="100%"/>
            </linearGradient>
            <clipPath clipPathUnits="userSpaceOnUse" id="clipPath1">
              <path d="M0 0 L1356 0 L1356 1451 L0 1451 L0 0 Z"/>
            </clipPath>
            <clipPath clipPathUnits="userSpaceOnUse" id="clipPath2">
              <path d="M91 69 L1447 69 L1447 1520 L91 1520 L91 69 Z"/>
            </clipPath>
            <clipPath clipPathUnits="userSpaceOnUse" id="clipPath3">
              <path d="M-137.5403 -10.3284 L782.2133 -10.3284 L782.2133 988.7707 L-137.5403 988.7707 L-137.5403 -10.3284 Z"/>
            </clipPath>
            <clipPath clipPathUnits="userSpaceOnUse" id="clipPath4">
              <path d="M-458.3687 -10.3284 L461.3848 -10.3284 L461.3848 988.7707 L-458.3687 988.7707 L-458.3687 -10.3284 Z"/>
            </clipPath>
            <clipPath clipPathUnits="userSpaceOnUse" id="clipPath5">
              <path d="M-771.7361 -10.3284 L148.0175 -10.3284 L148.0175 988.7707 L-771.7361 988.7707 L-771.7361 -10.3284 Z"/>
            </clipPath>
          </defs>
            
  
          <metadata id="svg1.metadata7">
    
  </metadata>
            
          <g inkscape:groupmode="layer" id="svg1.layer1" transform="translate(-29.5,-42.959476)" inkscape:label="Ebene 1">
                
            <a id="svg1.a3142" transform="matrix(1.0873906,0,0,1,-4.4741999,0)">
                    
              <path transform="translate(11.586889,5.2908993)" style="fill:none;fill-rule:evenodd;stroke:#000000;stroke-width:1px;stroke-linecap:butt;stroke-linejoin:miter;stroke-opacity:1" sodipodi:cx="38.509369" sodipodi:cy="47.36993" sodipodi:rx="8.5197716" id="svg1.path2160" d="M 47.02914 47.36993 A 8.5197716 9.2013531 0 1 1  29.989597,47.36993 A 8.5197716 9.2013531 0 1 1  47.02914 47.36993 z" sodipodi:ry="9.2013531" sodipodi:type="arc"/>
                  
            </a>
                
            <path style="fill:none" sodipodi:cx="43.962021" sodipodi:cy="48.392303" d="M 47.71072 48.392303 A 3.7486994 0 0 1 1  40.213321,48.392303 A 3.7486994 0 0 1 1  47.71072 48.392303 z" id="svg1.path3134" sodipodi:rx="3.7486994" sodipodi:ry="0" sodipodi:type="arc"/>
                
            <path style="fill:none;fill-rule:evenodd;stroke:#000000;stroke-width:1.24319649px;stroke-linecap:butt;stroke-linejoin:miter;stroke-opacity:1" d="M 50,61.33709 C 50,91.363211 50,92.247838 50,92.247838" id="svg1.path3136"/>
                
            <path style="fill:none;fill-rule:evenodd;stroke:#000000;stroke-width:1px;stroke-linecap:butt;stroke-linejoin:miter;stroke-opacity:1" d="M 69.760668,72.362183 C 69.760668,72.362183 69.760668,72.362183 50.239332,72.362183 C 30.239332,72.362183 30.239332,72.362183 30.239332,72.362183 L 30.239332,72.362183" id="svg1.path3138"/>
                
            <path style="fill:none;fill-rule:evenodd;stroke:#000000;stroke-width:1px;stroke-linecap:butt;stroke-linejoin:miter;stroke-opacity:1" d="M 30,111.45687 C 30,111.45687 30,111.45687 50,92.013532 C 70,111.45687 70,111.45687 70,111.45687" id="svg1.path3140"/>
              
          </g>
          
        </svg>
      </g>
    </g>
    <g font-size="13px" stroke-linecap="butt" transform="matrix(1,0,0,1,-91,-69)" text-rendering="geometricPrecision" font-family="sans-serif" shape-rendering="geometricPrecision" stroke-miterlimit="1.45">
      <text x="267.271" xml:space="preserve" y="203.0698" clip-path="url(#clipPath2)" stroke="none">Einreichende Partei</text>
    </g>
    <g text-rendering="geometricPrecision" shape-rendering="geometricPrecision" transform="matrix(1.4743,0,0,1.4523,675.7767,15)">
      <g clip-path="url(#clipPath4)">
        <svg xmlns:svg="http://www.w3.org/2000/svg" xmlns:sodipodi="http://sodipodi.sourceforge.net/DTD/sodipodi-0.dtd" xmlns:inkscape="http://www.inkscape.org/namespaces/inkscape" xmlns:dc="http://purl.org/dc/elements/1.1/" xmlns:cc="http://web.resource.org/cc/" xmlns:rdf="http://www.w3.org/1999/02/22-rdf-syntax-ns#" opacity="1" writing-mode="lr-tb" stop-color="rgb(0, 0, 0)" shape-rendering="auto" glyph-orientation-horizontal="0deg" color-profile="auto" lighting-color="rgb(255, 255, 255)" color="rgb(0, 0, 0)" font-weight="400" alignment-baseline="auto" font-style="normal" version="1.0" color-interpolation-filters="linearrgb" text-anchor="start" stroke-linecap="butt" color-interpolation="srgb" font-variant="normal" word-spacing="normal" fill-opacity="1" text-rendering="auto" clip-path="none" text-decoration="none" letter-spacing="normal" glyph-orientation-vertical="auto" display="inline" font-size-adjust="none" overflow="hidden" fill="rgb(0, 0, 0)" font-stretch="normal" stroke-dasharray="none" inkscape:version="0.45.1" id="svg2.svg2" stroke-miterlimit="4" stop-opacity="1" color-rendering="auto" font-size="12" sodipodi:docbase="C:\Daten\alberts\projects\yfx" pointer-events="visiblepainted" mask="none" direction="ltr" baseline-shift="baseline" sodipodi:docname="uml_actor.svg" enable-background="accumulate" fill-rule="nonzero" image-rendering="auto" stroke-dashoffset="0" inkscape:output_extension="org.inkscape.output.svg.inkscape" marker-end="none" width="41" clip="auto" cursor="auto" stroke="none" filter="none" visibility="visible" kerning="auto" stroke-width="1" font-family="&quot;Arial&quot;,&quot;Helvetica&quot;,sans-serif" flood-opacity="1" clip-rule="nonzero" src="none" height="68.997391" unicode-bidi="normal" sodipodi:version="0.32" stroke-linejoin="miter" stroke-opacity="1" flood-color="rgb(0, 0, 0)" dominant-baseline="auto" marker-start="none" marker-mid="none">
            
          <defs id="svg2.defs4"/>
            
  
          <metadata id="svg2.metadata7">
    
  </metadata>
            
          <g inkscape:groupmode="layer" id="svg2.layer1" transform="translate(-29.5,-42.959476)" inkscape:label="Ebene 1">
                
            <a id="svg2.a3142" transform="matrix(1.0873906,0,0,1,-4.4741999,0)">
                    
              <path transform="translate(11.586889,5.2908993)" style="fill:none;fill-rule:evenodd;stroke:#000000;stroke-width:1px;stroke-linecap:butt;stroke-linejoin:miter;stroke-opacity:1" sodipodi:cx="38.509369" sodipodi:cy="47.36993" sodipodi:rx="8.5197716" id="svg2.path2160" d="M 47.02914 47.36993 A 8.5197716 9.2013531 0 1 1  29.989597,47.36993 A 8.5197716 9.2013531 0 1 1  47.02914 47.36993 z" sodipodi:ry="9.2013531" sodipodi:type="arc"/>
                  
            </a>
                
            <path style="fill:none" sodipodi:cx="43.962021" sodipodi:cy="48.392303" d="M 47.71072 48.392303 A 3.7486994 0 0 1 1  40.213321,48.392303 A 3.7486994 0 0 1 1  47.71072 48.392303 z" id="svg2.path3134" sodipodi:rx="3.7486994" sodipodi:ry="0" sodipodi:type="arc"/>
                
            <path style="fill:none;fill-rule:evenodd;stroke:#000000;stroke-width:1.24319649px;stroke-linecap:butt;stroke-linejoin:miter;stroke-opacity:1" d="M 50,61.33709 C 50,91.363211 50,92.247838 50,92.247838" id="svg2.path3136"/>
                
            <path style="fill:none;fill-rule:evenodd;stroke:#000000;stroke-width:1px;stroke-linecap:butt;stroke-linejoin:miter;stroke-opacity:1" d="M 69.760668,72.362183 C 69.760668,72.362183 69.760668,72.362183 50.239332,72.362183 C 30.239332,72.362183 30.239332,72.362183 30.239332,72.362183 L 30.239332,72.362183" id="svg2.path3138"/>
                
            <path style="fill:none;fill-rule:evenodd;stroke:#000000;stroke-width:1px;stroke-linecap:butt;stroke-linejoin:miter;stroke-opacity:1" d="M 30,111.45687 C 30,111.45687 30,111.45687 50,92.013532 C 70,111.45687 70,111.45687 70,111.45687" id="svg2.path3140"/>
              
          </g>
          
        </svg>
      </g>
    </g>
    <g font-size="13px" stroke-linecap="butt" transform="matrix(1,0,0,1,-91,-69)" text-rendering="geometricPrecision" font-family="sans-serif" shape-rendering="geometricPrecision" stroke-miterlimit="1.45">
      <text x="716.0674" xml:space="preserve" y="203.0698" clip-path="url(#clipPath2)" stroke="none">AP Freigabe - VDA 231-301</text>
    </g>
    <g text-rendering="geometricPrecision" shape-rendering="geometricPrecision" transform="matrix(1.4743,0,0,1.4523,1137.7767,15)">
      <g clip-path="url(#clipPath5)">
        <svg xmlns:svg="http://www.w3.org/2000/svg" xmlns:sodipodi="http://sodipodi.sourceforge.net/DTD/sodipodi-0.dtd" xmlns:inkscape="http://www.inkscape.org/namespaces/inkscape" xmlns:dc="http://purl.org/dc/elements/1.1/" xmlns:cc="http://web.resource.org/cc/" xmlns:rdf="http://www.w3.org/1999/02/22-rdf-syntax-ns#" opacity="1" writing-mode="lr-tb" stop-color="rgb(0, 0, 0)" shape-rendering="auto" glyph-orientation-horizontal="0deg" color-profile="auto" lighting-color="rgb(255, 255, 255)" color="rgb(0, 0, 0)" font-weight="400" alignment-baseline="auto" font-style="normal" version="1.0" color-interpolation-filters="linearrgb" text-anchor="start" stroke-linecap="butt" color-interpolation="srgb" font-variant="normal" word-spacing="normal" fill-opacity="1" text-rendering="auto" clip-path="none" text-decoration="none" letter-spacing="normal" glyph-orientation-vertical="auto" display="inline" font-size-adjust="none" overflow="hidden" fill="rgb(0, 0, 0)" font-stretch="normal" stroke-dasharray="none" inkscape:version="0.45.1" id="svg3.svg2" stroke-miterlimit="4" stop-opacity="1" color-rendering="auto" font-size="12" sodipodi:docbase="C:\Daten\alberts\projects\yfx" pointer-events="visiblepainted" mask="none" direction="ltr" baseline-shift="baseline" sodipodi:docname="uml_actor.svg" enable-background="accumulate" fill-rule="nonzero" image-rendering="auto" stroke-dashoffset="0" inkscape:output_extension="org.inkscape.output.svg.inkscape" marker-end="none" width="41" clip="auto" cursor="auto" stroke="none" filter="none" visibility="visible" kerning="auto" stroke-width="1" font-family="&quot;Arial&quot;,&quot;Helvetica&quot;,sans-serif" flood-opacity="1" clip-rule="nonzero" src="none" height="68.997391" unicode-bidi="normal" sodipodi:version="0.32" stroke-linejoin="miter" stroke-opacity="1" flood-color="rgb(0, 0, 0)" dominant-baseline="auto" marker-start="none" marker-mid="none">
            
          <defs id="svg3.defs4"/>
            
  
          <metadata id="svg3.metadata7">
    
  </metadata>
            
          <g inkscape:groupmode="layer" id="svg3.layer1" transform="translate(-29.5,-42.959476)" inkscape:label="Ebene 1">
                
            <a id="svg3.a3142" transform="matrix(1.0873906,0,0,1,-4.4741999,0)">
                    
              <path transform="translate(11.586889,5.2908993)" style="fill:none;fill-rule:evenodd;stroke:#000000;stroke-width:1px;stroke-linecap:butt;stroke-linejoin:miter;stroke-opacity:1" sodipodi:cx="38.509369" sodipodi:cy="47.36993" sodipodi:rx="8.5197716" id="svg3.path2160" d="M 47.02914 47.36993 A 8.5197716 9.2013531 0 1 1  29.989597,47.36993 A 8.5197716 9.2013531 0 1 1  47.02914 47.36993 z" sodipodi:ry="9.2013531" sodipodi:type="arc"/>
                  
            </a>
                
            <path style="fill:none" sodipodi:cx="43.962021" sodipodi:cy="48.392303" d="M 47.71072 48.392303 A 3.7486994 0 0 1 1  40.213321,48.392303 A 3.7486994 0 0 1 1  47.71072 48.392303 z" id="svg3.path3134" sodipodi:rx="3.7486994" sodipodi:ry="0" sodipodi:type="arc"/>
                
            <path style="fill:none;fill-rule:evenodd;stroke:#000000;stroke-width:1.24319649px;stroke-linecap:butt;stroke-linejoin:miter;stroke-opacity:1" d="M 50,61.33709 C 50,91.363211 50,92.247838 50,92.247838" id="svg3.path3136"/>
                
            <path style="fill:none;fill-rule:evenodd;stroke:#000000;stroke-width:1px;stroke-linecap:butt;stroke-linejoin:miter;stroke-opacity:1" d="M 69.760668,72.362183 C 69.760668,72.362183 69.760668,72.362183 50.239332,72.362183 C 30.239332,72.362183 30.239332,72.362183 30.239332,72.362183 L 30.239332,72.362183" id="svg3.path3138"/>
                
            <path style="fill:none;fill-rule:evenodd;stroke:#000000;stroke-width:1px;stroke-linecap:butt;stroke-linejoin:miter;stroke-opacity:1" d="M 30,111.45687 C 30,111.45687 30,111.45687 50,92.013532 C 70,111.45687 70,111.45687 70,111.45687" id="svg3.path3140"/>
              
          </g>
          
        </svg>
      </g>
    </g>
    <g font-size="13px" stroke-linecap="butt" transform="matrix(1,0,0,1,-91,-69)" text-rendering="geometricPrecision" font-family="sans-serif" shape-rendering="geometricPrecision" stroke-miterlimit="1.45">
      <text x="1088.1179" xml:space="preserve" y="203.0698" clip-path="url(#clipPath2)" stroke="none">VDA Projektgruppe Digitales Werkstoff-Datenmanagement </text>
    </g>
    <g font-size="13px" stroke-linecap="butt" transform="matrix(1,0,0,1,-91,-69)" text-rendering="geometricPrecision" font-family="sans-serif" shape-rendering="geometricPrecision" stroke-miterlimit="1.45">
      <text x="1185.6655" xml:space="preserve" y="218.9961" clip-path="url(#clipPath2)" stroke="none">im Bemusterungsprozess</text>
    </g>
    <g fill="url(#linearGradient2)" text-rendering="geometricPrecision" shape-rendering="geometricPrecision" transform="matrix(1,0,0,1,-91,-69)" stroke="url(#linearGradient2)">
      <rect x="626" y="590.5808" clip-path="url(#clipPath2)" width="342" rx="16.7753" ry="16.7753" height="33.5505" stroke="none"/>
    </g>
    <g text-rendering="geometricPrecision" stroke-miterlimit="1.45" shape-rendering="geometricPrecision" transform="matrix(1,0,0,1,-91,-69)" stroke-linecap="butt">
      <rect x="626" y="590.5808" clip-path="url(#clipPath2)" fill="none" width="342" rx="16.7753" ry="16.7753" height="33.5505"/>
      <text x="729.6289" xml:space="preserve" y="604.7194" clip-path="url(#clipPath2)" font-family="sans-serif" stroke="none">Prüfung des Entwurfs auf</text>
      <text x="668.9521" xml:space="preserve" y="619.4205" clip-path="url(#clipPath2)" font-family="sans-serif" stroke="none">Übereinstimmung mit Basis-Konzept (technisch)</text>
    </g>
    <g fill="url(#linearGradient3)" text-rendering="geometricPrecision" shape-rendering="geometricPrecision" transform="matrix(1,0,0,1,-91,-69)" stroke="url(#linearGradient3)">
      <path d="M463 460.25 L586 460.25 L586 518.4375 Q555.25 501.8125 524.5 518.4375 Q493.75 535.0625 463 518.4375 Z" stroke="none" clip-path="url(#clipPath2)"/>
    </g>
    <g text-rendering="geometricPrecision" stroke-miterlimit="1.45" shape-rendering="geometricPrecision" transform="matrix(1,0,0,1,-91,-69)" stroke-linecap="butt">
      <path fill="none" d="M463 460.25 L586 460.25 L586 518.4375 Q555.25 501.8125 524.5 518.4375 Q493.75 535.0625 463 518.4375 Z" clip-path="url(#clipPath2)"/>
      <text x="473.4736" xml:space="preserve" y="490.8633" clip-path="url(#clipPath2)" font-family="sans-serif" stroke="none">Spezielles Schema</text>
      <text x="504.1592" xml:space="preserve" y="505.5645" clip-path="url(#clipPath2)" font-family="sans-serif" stroke="none">Entwurf</text>
    </g>
    <g fill="url(#linearGradient4)" text-rendering="geometricPrecision" shape-rendering="geometricPrecision" transform="matrix(1,0,0,1,-91,-69)" stroke="url(#linearGradient4)">
      <rect x="199" y="538.5" clip-path="url(#clipPath2)" width="234" rx="26.25" ry="26.25" height="52.5" stroke="none"/>
    </g>
    <g text-rendering="geometricPrecision" stroke-miterlimit="1.45" shape-rendering="geometricPrecision" transform="matrix(1,0,0,1,-91,-69)" stroke-linecap="butt">
      <rect x="199" y="538.5" clip-path="url(#clipPath2)" fill="none" width="234" rx="26.25" ry="26.25" height="52.5"/>
      <text x="215.9541" xml:space="preserve" y="562.1133" clip-path="url(#clipPath2)" font-family="sans-serif" stroke="none">Einreichen des Entwurfs: GitHub Pull </text>
      <text x="221.6172" xml:space="preserve" y="576.8145" clip-path="url(#clipPath2)" font-family="sans-serif" stroke="none">Request, Nachricht an AP Freigabe</text>
    </g>
    <g fill="url(#linearGradient5)" text-rendering="geometricPrecision" shape-rendering="geometricPrecision" transform="matrix(1,0,0,1,-91,-69)" stroke="url(#linearGradient5)">
      <rect x="196" y="257" clip-path="url(#clipPath2)" width="240" rx="20" ry="20" height="40" stroke="none"/>
    </g>
    <g text-rendering="geometricPrecision" stroke-miterlimit="1.45" shape-rendering="geometricPrecision" transform="matrix(1,0,0,1,-91,-69)" stroke-linecap="butt">
      <rect x="196" y="257" clip-path="url(#clipPath2)" fill="none" width="240" rx="20" ry="20" height="40"/>
      <text x="266.6436" xml:space="preserve" y="274.3633" clip-path="url(#clipPath2)" font-family="sans-serif" stroke="none">Absichtserklärung:</text>
      <text x="221.6172" xml:space="preserve" y="289.0645" clip-path="url(#clipPath2)" font-family="sans-serif" stroke="none">Erstellung eines spezielles Schema</text>
    </g>
    <g fill="url(#linearGradient6)" text-rendering="geometricPrecision" shape-rendering="geometricPrecision" transform="matrix(1,0,0,1,-91,-69)" stroke="url(#linearGradient6)">
      <rect x="658" y="312" clip-path="url(#clipPath2)" width="278" rx="20" ry="20" height="40" stroke="none"/>
    </g>
    <g text-rendering="geometricPrecision" stroke-miterlimit="1.45" shape-rendering="geometricPrecision" transform="matrix(1,0,0,1,-91,-69)" stroke-linecap="butt">
      <rect x="658" y="312" clip-path="url(#clipPath2)" fill="none" width="278" rx="20" ry="20" height="40"/>
      <text x="675.2715" xml:space="preserve" y="336.7139" clip-path="url(#clipPath2)" font-family="sans-serif" stroke="none">Registrierung in Liste der speziellen Schemas</text>
    </g>
    <g fill="url(#linearGradient7)" text-rendering="geometricPrecision" shape-rendering="geometricPrecision" transform="matrix(1,0,0,1,-91,-69)" stroke="url(#linearGradient7)">
      <rect x="658" y="382" clip-path="url(#clipPath2)" width="278" rx="20" ry="20" height="40" stroke="none"/>
    </g>
    <g text-rendering="geometricPrecision" stroke-miterlimit="1.45" shape-rendering="geometricPrecision" transform="matrix(1,0,0,1,-91,-69)" stroke-linecap="butt">
      <rect x="658" y="382" clip-path="url(#clipPath2)" fill="none" width="278" rx="20" ry="20" height="40"/>
      <text x="679.6133" xml:space="preserve" y="406.7139" clip-path="url(#clipPath2)" font-family="sans-serif" stroke="none">Erstellung Repository für spezielles Schema</text>
    </g>
    <g fill="url(#linearGradient8)" text-rendering="geometricPrecision" shape-rendering="geometricPrecision" transform="matrix(1,0,0,1,-91,-69)" stroke="url(#linearGradient8)">
      <path d="M797 715.8792 L895 778.8792 L797 841.8792 L699 778.8792 Z" stroke="none" clip-path="url(#clipPath2)"/>
    </g>
    <g text-rendering="geometricPrecision" stroke-miterlimit="1.45" shape-rendering="geometricPrecision" transform="matrix(1,0,0,1,-91,-69)" stroke-linecap="butt">
      <path fill="none" d="M797 715.8792 L895 778.8792 L797 841.8792 L699 778.8792 Z" clip-path="url(#clipPath2)"/>
      <text x="730.2998" xml:space="preserve" y="776.2424" clip-path="url(#clipPath2)" font-family="sans-serif" stroke="none">Entwurf von AP Freigabe</text>
      <text x="760.3086" xml:space="preserve" y="790.9436" clip-path="url(#clipPath2)" font-family="sans-serif" stroke="none">angenommen</text>
    </g>
    <g fill="url(#linearGradient9)" text-rendering="geometricPrecision" shape-rendering="geometricPrecision" transform="matrix(1,0,0,1,-91,-69)" stroke="url(#linearGradient9)">
      <rect x="1144.5" y="929.8792" clip-path="url(#clipPath2)" width="229" rx="20" ry="20" height="40" stroke="none"/>
    </g>
    <g text-rendering="geometricPrecision" stroke-miterlimit="1.45" shape-rendering="geometricPrecision" transform="matrix(1,0,0,1,-91,-69)" stroke-linecap="butt">
      <rect x="1144.5" y="929.8792" clip-path="url(#clipPath2)" fill="none" width="229" rx="20" ry="20" height="40"/>
      <text x="1174.959" xml:space="preserve" y="947.2424" clip-path="url(#clipPath2)" font-family="sans-serif" stroke="none">Antrag zur Veröffentlichung mit </text>
      <text x="1183.9766" xml:space="preserve" y="961.9436" clip-path="url(#clipPath2)" font-family="sans-serif" stroke="none">vierwöchiger Rückmeldefrist</text>
    </g>
    <g fill="url(#linearGradient10)" text-rendering="geometricPrecision" shape-rendering="geometricPrecision" transform="matrix(1,0,0,1,-91,-69)" stroke="url(#linearGradient10)">
      <rect x="199" y="827.8792" clip-path="url(#clipPath2)" width="234" rx="20" ry="20" height="40" stroke="none"/>
    </g>
    <g text-rendering="geometricPrecision" stroke-miterlimit="1.45" shape-rendering="geometricPrecision" transform="matrix(1,0,0,1,-91,-69)" stroke-linecap="butt">
      <rect x="199" y="827.8792" clip-path="url(#clipPath2)" fill="none" width="234" rx="20" ry="20" height="40"/>
      <text x="211.6064" xml:space="preserve" y="852.593" clip-path="url(#clipPath2)" font-family="sans-serif" stroke="none">Überarbeitung des speziellen Schemas</text>
    </g>
    <g fill="url(#linearGradient11)" text-rendering="geometricPrecision" shape-rendering="geometricPrecision" transform="matrix(1,0,0,1,-91,-69)" stroke="url(#linearGradient11)">
      <path d="M463 814.6292 L586 814.6292 L586 872.8167 Q555.25 856.1917 524.5 872.8167 Q493.75 889.4417 463 872.8167 Z" stroke="none" clip-path="url(#clipPath2)"/>
    </g>
    <g text-rendering="geometricPrecision" stroke-miterlimit="1.45" shape-rendering="geometricPrecision" transform="matrix(1,0,0,1,-91,-69)" stroke-linecap="butt">
      <path fill="none" d="M463 814.6292 L586 814.6292 L586 872.8167 Q555.25 856.1917 524.5 872.8167 Q493.75 889.4417 463 872.8167 Z" clip-path="url(#clipPath2)"/>
      <text x="473.4736" xml:space="preserve" y="845.2424" clip-path="url(#clipPath2)" font-family="sans-serif" stroke="none">Spezielles Schema</text>
      <text x="480.1445" xml:space="preserve" y="859.9436" clip-path="url(#clipPath2)" font-family="sans-serif" stroke="none">überarb. Entwurf</text>
    </g>
    <g fill="url(#linearGradient12)" text-rendering="geometricPrecision" shape-rendering="geometricPrecision" transform="matrix(1,0,0,1,-91,-69)" stroke="url(#linearGradient12)">
      <path d="M1259 999.8792 L1360 1054.3792 L1259 1108.8792 L1158 1054.3792 Z" stroke="none" clip-path="url(#clipPath2)"/>
    </g>
    <g text-rendering="geometricPrecision" stroke-miterlimit="1.45" shape-rendering="geometricPrecision" transform="matrix(1,0,0,1,-91,-69)" stroke-linecap="butt">
      <path fill="none" d="M1259 999.8792 L1360 1054.3792 L1259 1108.8792 L1158 1054.3792 Z" clip-path="url(#clipPath2)"/>
      <text x="1177.2881" xml:space="preserve" y="1051.7424" clip-path="url(#clipPath2)" font-family="sans-serif" stroke="none">Rückmeldung an AP Freigabe </text>
      <text x="1184.624" xml:space="preserve" y="1066.4436" clip-path="url(#clipPath2)" font-family="sans-serif" stroke="none">innerhalb von vier Wochen?</text>
    </g>
    <g fill="url(#linearGradient13)" text-rendering="geometricPrecision" shape-rendering="geometricPrecision" transform="matrix(1,0,0,1,-91,-69)" stroke="url(#linearGradient13)">
      <rect x="647.1689" y="1353.9145" clip-path="url(#clipPath2)" width="323" rx="37" ry="37" height="74" stroke="none"/>
    </g>
    <g text-rendering="geometricPrecision" stroke-miterlimit="1.45" shape-rendering="geometricPrecision" transform="matrix(1,0,0,1,-91,-69)" stroke-linecap="butt">
      <rect x="647.1689" y="1353.9145" clip-path="url(#clipPath2)" fill="none" width="323" rx="37" ry="37" height="74"/>
      <text x="697.2704" xml:space="preserve" y="1380.9271" clip-path="url(#clipPath2)" font-family="sans-serif" stroke="none">Veröffentlichung des speziellen Schemas:</text>
      <text x="743.3076" xml:space="preserve" y="1395.6283" clip-path="url(#clipPath2)" font-family="sans-serif" stroke="none">Versionierung im GitHub</text>
      <text x="680.2695" xml:space="preserve" y="1410.3295" clip-path="url(#clipPath2)" font-family="sans-serif" stroke="none">Aufnahme in Liste veröffentlichter Sub-Schemas</text>
    </g>
    <g fill="url(#linearGradient14)" text-rendering="geometricPrecision" shape-rendering="geometricPrecision" transform="matrix(1,0,0,1,-91,-69)" stroke="url(#linearGradient14)">
      <rect x="682.5" y="878.8792" clip-path="url(#clipPath2)" width="229" rx="20" ry="20" height="40" stroke="none"/>
    </g>
    <g text-rendering="geometricPrecision" stroke-miterlimit="1.45" shape-rendering="geometricPrecision" transform="matrix(1,0,0,1,-91,-69)" stroke-linecap="butt">
      <rect x="682.5" y="878.8792" clip-path="url(#clipPath2)" fill="none" width="229" rx="20" ry="20" height="40"/>
      <text x="714.6084" xml:space="preserve" y="903.593" clip-path="url(#clipPath2)" font-family="sans-serif" stroke="none">Einreichenden benachrichtigen</text>
    </g>
    <g fill="url(#linearGradient15)" text-rendering="geometricPrecision" shape-rendering="geometricPrecision" transform="matrix(1,0,0,1,-91,-69)" stroke="url(#linearGradient15)">
      <rect x="694.1689" y="1464.0041" clip-path="url(#clipPath2)" width="229" rx="20" ry="20" height="40" stroke="none"/>
    </g>
    <g text-rendering="geometricPrecision" stroke-miterlimit="1.45" shape-rendering="geometricPrecision" transform="matrix(1,0,0,1,-91,-69)" stroke-linecap="butt">
      <rect x="694.1689" y="1464.0041" clip-path="url(#clipPath2)" fill="none" width="229" rx="20" ry="20" height="40"/>
      <text x="726.2773" xml:space="preserve" y="1488.718" clip-path="url(#clipPath2)" font-family="sans-serif" stroke="none">Einreichenden benachrichtigen</text>
    </g>
    <g fill="url(#linearGradient16)" text-rendering="geometricPrecision" shape-rendering="geometricPrecision" transform="matrix(1,0,0,1,-91,-69)" stroke="url(#linearGradient16)">
      <rect x="626" y="653.23" clip-path="url(#clipPath2)" width="342" rx="20" ry="20" height="40" stroke="none"/>
    </g>
    <g text-rendering="geometricPrecision" stroke-miterlimit="1.45" shape-rendering="geometricPrecision" transform="matrix(1,0,0,1,-91,-69)" stroke-linecap="butt">
      <rect x="626" y="653.23" clip-path="url(#clipPath2)" fill="none" width="342" rx="20" ry="20" height="40"/>
      <text x="646.2441" xml:space="preserve" y="670.5933" clip-path="url(#clipPath2)" font-family="sans-serif" stroke="none">Prüfung des Entwurfs auf Eignung zum Datenaustausch </text>
      <text x="675.9189" xml:space="preserve" y="685.2944" clip-path="url(#clipPath2)" font-family="sans-serif" stroke="none">der abzubildenden Prüfung (fachliche Inhalte)</text>
    </g>
    <g fill="url(#linearGradient17)" text-rendering="geometricPrecision" shape-rendering="geometricPrecision" transform="matrix(1,0,0,1,-91,-69)" stroke="url(#linearGradient17)">
      <rect x="691.6689" y="1039.488" clip-path="url(#clipPath2)" width="234" rx="20" ry="20" height="40" stroke="none"/>
    </g>
    <g text-rendering="geometricPrecision" stroke-miterlimit="1.45" shape-rendering="geometricPrecision" transform="matrix(1,0,0,1,-91,-69)" stroke-linecap="butt">
      <rect x="691.6689" y="1039.488" clip-path="url(#clipPath2)" fill="none" width="234" rx="20" ry="20" height="40"/>
      <text x="723.2861" xml:space="preserve" y="1064.2019" clip-path="url(#clipPath2)" font-family="sans-serif" stroke="none">Überprüfen der Rückmeldungen</text>
    </g>
    <g fill="url(#linearGradient18)" text-rendering="geometricPrecision" shape-rendering="geometricPrecision" transform="matrix(1,0,0,1,-91,-69)" stroke="url(#linearGradient18)">
      <path d="M808.6689 1126.6455 L909.6689 1181.1455 L808.6689 1235.6455 L707.6689 1181.1455 Z" stroke="none" clip-path="url(#clipPath2)"/>
    </g>
    <g text-rendering="geometricPrecision" stroke-miterlimit="1.45" shape-rendering="geometricPrecision" transform="matrix(1,0,0,1,-91,-69)" stroke-linecap="butt">
      <path fill="none" d="M808.6689 1126.6455 L909.6689 1181.1455 L808.6689 1235.6455 L707.6689 1181.1455 Z" clip-path="url(#clipPath2)"/>
      <text x="738.2861" xml:space="preserve" y="1185.8594" clip-path="url(#clipPath2)" font-family="sans-serif" stroke="none">Überarbeitung notwendig?</text>
    </g>
    <g fill="url(#linearGradient19)" text-rendering="geometricPrecision" shape-rendering="geometricPrecision" transform="matrix(1,0,0,1,-91,-69)" stroke="url(#linearGradient19)">
      <rect x="694.1689" y="1277.8248" clip-path="url(#clipPath2)" width="229" rx="20" ry="20" height="40" stroke="none"/>
    </g>
    <g text-rendering="geometricPrecision" stroke-miterlimit="1.45" shape-rendering="geometricPrecision" transform="matrix(1,0,0,1,-91,-69)" stroke-linecap="butt">
      <rect x="694.1689" y="1277.8248" clip-path="url(#clipPath2)" fill="none" width="229" rx="20" ry="20" height="40"/>
      <text x="750.3036" xml:space="preserve" y="1302.5387" clip-path="url(#clipPath2)" font-family="sans-serif" stroke="none">Information an die PG</text>
    </g>
    <g text-rendering="geometricPrecision" stroke-miterlimit="1.45" shape-rendering="geometricPrecision" transform="matrix(1,0,0,1,-91,-69)" stroke-linecap="butt">
      <path fill="none" d="M432.7977 491.3009 L455.0241 491.8339" clip-path="url(#clipPath2)"/>
      <path d="M463.0219 492.0257 L451.1452 486.7395 L454.0244 491.8099 L450.9054 496.7366 Z" clip-path="url(#clipPath2)" stroke="none"/>
      <path fill="none" d="M316 508.4933 L316 530.517" clip-path="url(#clipPath2)"/>
      <path d="M316 538.517 L321 526.517 L316 529.517 L311 526.517 Z" clip-path="url(#clipPath2)" stroke="none"/>
      <path fill="none" d="M432.9913 564.75 L797 564.75 L797 582.5883" clip-path="url(#clipPath2)"/>
      <path d="M797 590.5883 L802 578.5883 L797 581.5883 L792 578.5883 Z" clip-path="url(#clipPath2)" stroke="none"/>
      <path fill="none" d="M435.9858 275.7527 L797 272 L797 303.9902" clip-path="url(#clipPath2)"/>
      <path d="M797 311.9902 L802 299.9902 L797 302.9902 L792 299.9902 Z" clip-path="url(#clipPath2)" stroke="none"/>
      <path fill="none" d="M797 351.9951 L797 374.0273" clip-path="url(#clipPath2)"/>
      <path d="M797 382.0273 L802 370.0273 L797 373.0273 L792 370.0273 Z" clip-path="url(#clipPath2)" stroke="none"/>
      <path fill="none" d="M657.9903 402 L316 402 L316 460.5222" clip-path="url(#clipPath2)"/>
      <path d="M316 468.5222 L321 456.5222 L316 459.5222 L311 456.5222 Z" clip-path="url(#clipPath2)" stroke="none"/>
      <path fill="none" d="M698.9739 778.8792 L316 778.8792 L316 819.9001" clip-path="url(#clipPath2)"/>
      <path d="M316 827.9001 L321 815.9001 L316 818.9001 L311 815.9001 Z" clip-path="url(#clipPath2)" stroke="none"/>
      <text x="669.3125" xml:space="preserve" y="753.593" clip-path="url(#clipPath2)" font-family="sans-serif" stroke="none">nein</text>
      <path fill="none" d="M198.9773 847.8792 L106 847.8792 L106 564.75 L190.9773 564.75" clip-path="url(#clipPath2)"/>
      <path d="M198.9773 564.75 L186.9773 559.75 L189.9773 564.75 L186.9773 569.75 Z" clip-path="url(#clipPath2)" stroke="none"/>
      <path fill="none" d="M433.0013 847.8792 L454.9796 847.8792" clip-path="url(#clipPath2)"/>
      <path d="M462.9796 847.8792 L450.9796 842.8792 L453.9796 847.8792 L450.9796 852.8792 Z" clip-path="url(#clipPath2)" stroke="none"/>
      <path fill="none" d="M1259 969.8556 L1259 991.8598" clip-path="url(#clipPath2)"/>
      <path d="M1259 999.8598 L1264 987.8598 L1259 990.8598 L1254 987.8598 Z" clip-path="url(#clipPath2)" stroke="none"/>
      <path fill="none" d="M1259 1108.8936 L1259 1390.9144 L978.1493 1390.9144" clip-path="url(#clipPath2)"/>
      <path d="M970.1493 1390.9144 L982.1493 1395.9144 L979.1493 1390.9144 L982.1493 1385.9144 Z" clip-path="url(#clipPath2)" stroke="none"/>
      <text x="1277.6562" xml:space="preserve" y="1127.9436" clip-path="url(#clipPath2)" font-family="sans-serif" stroke="none">nein</text>
      <path fill="none" d="M797 841.8967 L797 870.8741" clip-path="url(#clipPath2)"/>
      <path d="M797 878.8741 L802 866.8741 L797 869.8741 L792 866.8741 Z" clip-path="url(#clipPath2)" stroke="none"/>
      <text x="822.3301" xml:space="preserve" y="860.9436" clip-path="url(#clipPath2)" font-family="sans-serif" stroke="none">ja</text>
      <path fill="none" d="M911.5131 898.8792 L1259 898.8792 L1259 921.9075" clip-path="url(#clipPath2)"/>
      <path d="M1259 929.9075 L1264 917.9075 L1259 920.9075 L1254 917.9075 Z" clip-path="url(#clipPath2)" stroke="none"/>
      <path fill="none" d="M808.6689 1427.9595 L808.6689 1455.9999" clip-path="url(#clipPath2)"/>
      <path d="M808.6689 1463.9999 L813.6689 1451.9999 L808.6689 1454.9999 L803.6689 1451.9999 Z" clip-path="url(#clipPath2)" stroke="none"/>
      <path fill="none" d="M797 624.1619 L797 645.2189" clip-path="url(#clipPath2)"/>
      <path d="M797 653.2189 L802 641.2189 L797 644.2189 L792 641.2189 Z" clip-path="url(#clipPath2)" stroke="none"/>
      <path fill="none" d="M797 693.2197 L797 707.8475" clip-path="url(#clipPath2)"/>
      <path d="M797 715.8475 L802 703.8475 L797 706.8475 L792 703.8475 Z" clip-path="url(#clipPath2)" stroke="none"/>
      <path fill="none" d="M1157.9971 1054.3792 L933.0489 1054.3792" clip-path="url(#clipPath2)"/>
      <path d="M925.0489 1054.3792 L937.0489 1059.3792 L934.0489 1054.3792 L937.0489 1049.3792 Z" clip-path="url(#clipPath2)" stroke="none"/>
      <text x="1141.6602" xml:space="preserve" y="1029.2559" clip-path="url(#clipPath2)" font-family="sans-serif" stroke="none">ja</text>
      <path fill="none" d="M808.6689 1079.4772 L808.6689 1118.6874" clip-path="url(#clipPath2)"/>
      <path d="M808.6689 1126.6874 L813.6689 1114.6874 L808.6689 1117.6874 L803.6689 1114.6874 Z" clip-path="url(#clipPath2)" stroke="none"/>
      <path fill="none" d="M707.6633 1181.1455 L316 1181.1455 L316 875.854" clip-path="url(#clipPath2)"/>
      <path d="M316 867.854 L311 879.854 L316 876.854 L321 879.854 Z" clip-path="url(#clipPath2)" stroke="none"/>
      <text x="691.329" xml:space="preserve" y="1196.1489" clip-path="url(#clipPath2)" font-family="sans-serif" stroke="none">ja</text>
      <path fill="none" d="M808.6689 1235.6395 L808.6689 1269.8149" clip-path="url(#clipPath2)"/>
      <path d="M808.6689 1277.8149 L813.6689 1265.8149 L808.6689 1268.8149 L803.6689 1265.8149 Z" clip-path="url(#clipPath2)" stroke="none"/>
      <text x="812.8232" xml:space="preserve" y="1254.71" clip-path="url(#clipPath2)" font-family="sans-serif" stroke="none">nein</text>
      <path fill="none" d="M808.6689 1317.87 L808.6689 1345.9286" clip-path="url(#clipPath2)"/>
      <path d="M808.6689 1353.9286 L813.6689 1341.9286 L808.6689 1344.9286 L803.6689 1341.9286 Z" clip-path="url(#clipPath2)" stroke="none"/>
    </g>
  </g>
</svg>
